<svg class="icon" viewBox="0 0 1024 1024" version="1.1" xmlns="http://www.w3.org/2000/svg" width="16" height="16">
    <path d="M32.071453 831.767214a31.989853 31.989853 0 0 1-11.836245-61.740417l290.147968-116.123167a31.989853 31.989853 0 1 1 23.672492 59.501127C15.756628 840.724373 41.028612 831.767214 32.071453 831.767214zM511.919251 287.939709a31.989853 31.989853 0 0 1-31.989853-31.989853V32.020883a31.989853 31.989853 0 0 1 63.979707 0v223.928973a31.989853 31.989853 0 0 1-31.989854 31.989853zM991.76705 831.767214c-8.957159 0 12.476043 7.357666-301.984215-118.362457a31.989853 31.989853 0 0 1 23.672492-59.501127l290.147968 116.123167A31.989853 31.989853 0 0 1 991.76705 831.767214z" fill="#38004D" />
    <path d="M32.071453 831.767214a31.989853 31.989853 0 0 1-31.989853-31.989853V223.960003a31.989853 31.989853 0 0 1 63.979706 0v575.817358a31.989853 31.989853 0 0 1-31.989853 31.989853z" fill="#38004D" />
    <path d="M511.919251 799.777361a287.908679 287.908679 0 1 1 287.908679-287.908679 287.908679 287.908679 0 0 1-287.908679 287.908679z m0-511.837652a223.928973 223.928973 0 1 0 223.928973 223.928973 223.928973 223.928973 0 0 0-223.928973-223.928973z" fill="#9F85EC" />
    <path d="M991.76705 383.909269a31.989853 31.989853 0 0 0 31.989853-31.989853c0-139.47576 0-130.518601-2.23929-138.835963-6.717869-18.874013 20.153608-3.518884-497.762116-210.813133a31.989853 31.989853 0 0 0-23.672491 0C-13.674037 207.645178 6.799469 194.529338 1.681093 216.602336a19.51381 19.51381 0 0 0 0 14.715333c5.118377 22.392897-15.035231 8.957159 479.847798 206.334553v506.719275L43.907699 770.026797a31.989853 31.989853 0 0 0-41.586809 17.914318 31.989853 31.989853 0 0 0 17.914318 41.586809c526.233085 210.493234 476.009016 189.379931 479.847798 191.939119a31.989853 31.989853 0 0 0 24.952085 0l479.847799-191.939119A31.989853 31.989853 0 0 0 1023.756903 799.777361V479.878828a31.989853 31.989853 0 0 0-63.979706 0v298.145432l-415.868092 166.347237V437.652222l415.868092-166.347237V351.919416a31.989853 31.989853 0 0 0 31.989853 31.989853zM511.919251 66.569925L905.714345 223.960003 511.919251 381.350081 118.124158 223.960003z" fill="#38004D" />
</svg>