<?xml version="1.0" standalone="no"?><!DOCTYPE svg PUBLIC "-//W3C//DTD SVG 1.1//EN" "http://www.w3.org/Graphics/SVG/1.1/DTD/svg11.dtd">
<svg t="1647243259972" class="icon" viewBox="0 0 1024 1024" version="1.1" xmlns="http://www.w3.org/2000/svg" p-id="8124" xmlns:xlink="http://www.w3.org/1999/xlink" width="200" height="200">
    <defs><style type="text/css"></style>
    </defs>
    <path d="M816.9 353.3h-0.3C813.1 188 678.1 55.1 512 55.1S211 188 207.5 353.3h-0.4c-86.9 0-158 71.1-158 158.1s71.1 158.1 158.1 158.1H817c87 0 158.1-71.1 158.1-158.1-0.1-87-71.3-158.1-158.2-158.1z" fill="#FFFFFF" p-id="8125"></path>
    <path d="M816.9 698.6H207.2c-49.8 0-96.8-19.5-132.2-54.9-35.5-35.5-55-82.5-55-132.3 0-49.8 19.5-96.8 54.9-132.3 28.9-28.9 65.5-47.3 105.1-53 7.8-77.5 42.1-149.5 98.4-204.7C341.1 59.9 424.1 26 512 26s171 33.9 233.7 95.4c56.3 55.2 90.6 127 98.4 204.7 39.5 5.7 76.1 24.1 105 53 35.4 35.4 54.9 82.4 54.9 132.2s-19.5 96.8-54.9 132.3c-35.5 35.4-82.3 55-132.2 55zM207.2 382.4c-71.1 0-129 57.8-129 129 0 71 57.8 129 129 129H817c71.1 0 129-57.8 129-129 0-71.1-57.8-129-129-129h-28.8l-0.6-28.5C784.4 205.2 660.8 84.2 512 84.2s-272.3 121-275.4 269.6l-0.6 28.5h-28.8zM162.6 967.2c-12.1-8.7-14.9-25.5-6.3-37.7l117.4-164.4c8.7-12.1 25.5-14.9 37.7-6.3 12.1 8.7 14.9 25.5 6.3 37.7L200.3 960.9c-8.7 12.1-25.6 14.9-37.7 6.3z" fill="#1677B3" p-id="8126"></path>
    <path d="M178.2 992.2c-9.7 0-19.2-3-27.2-8.8-21.1-15.1-26-44.5-10.9-65.6l117.4-164.4c7.3-10.2 18.1-17 30.5-19 12.4-2.1 24.8 0.8 35 8.1 21.1 15.1 26 44.5 10.9 65.6L216.5 972.5c-7.3 10.2-18.1 17-30.5 19-2.6 0.5-5.2 0.7-7.8 0.7z m117.5-218.4c-0.5 0-0.9 0-1.2 0.1-1.1 0.2-3.1 0.8-4.5 2.8L172.6 941.1c-2.2 3.1-1.5 7.5 1.6 9.8 2.1 1.5 4.2 1.4 5.2 1.2 1.1-0.2 3.1-0.8 4.5-2.8l117.4-164.4c2.2-3.1 1.5-7.5-1.6-9.8-1.4-1-2.9-1.3-4-1.3zM405.6 967.2c-12.1-8.7-14.9-25.5-6.3-37.7l117.4-164.4c8.7-12.1 25.5-14.9 37.7-6.3 12.1 8.7 14.9 25.5 6.3 37.7L443.3 960.9c-8.7 12.1-25.6 14.9-37.7 6.3z" fill="#1677B3" p-id="8127"></path>
    <path d="M421.2 992.2c-9.7 0-19.2-3-27.2-8.8-21.1-15.1-26-44.5-10.9-65.6l117.4-164.4c7.3-10.2 18.1-17 30.5-19 12.4-2.1 24.8 0.8 35 8.1s17 18.1 19 30.5c2.1 12.4-0.8 24.8-8.1 35L459.5 972.5c-7.3 10.2-18.1 17-30.5 19-2.6 0.5-5.2 0.7-7.8 0.7z m117.5-218.4c-2.2 0-4.3 1-5.7 2.9L415.6 941.1c-2.2 3.1-1.5 7.5 1.6 9.8 2.1 1.5 4.2 1.4 5.2 1.2 1.1-0.2 3.1-0.8 4.5-2.8l117.4-164.4c2.2-3.1 1.5-7.5-1.6-9.8-1.2-0.9-2.6-1.3-4-1.3zM648.6 967.2c-12.1-8.7-14.9-25.5-6.3-37.7l117.4-164.4c8.7-12.1 25.5-14.9 37.7-6.3 12.1 8.7 14.9 25.5 6.3 37.7L686.3 960.9c-8.7 12.1-25.6 14.9-37.7 6.3z" fill="#1677B3" p-id="8128"></path>
    <path d="M664.2 992.2c-9.7 0-19.2-3-27.2-8.8-10.2-7.3-17-18.1-19-30.5-2.1-12.4 0.8-24.8 8.1-35l117.4-164.4c7.3-10.2 18.1-17 30.5-19 12.4-2.1 24.8 0.8 35 8.1s17 18.1 19 30.5c2.1 12.4-0.8 24.8-8.1 35L702.5 972.5c-7.3 10.2-18.1 17-30.5 19-2.6 0.5-5.2 0.7-7.8 0.7z m117.5-218.4c-2.2 0-4.3 1-5.7 2.9L658.6 941.1c-2.2 3.1-1.5 7.5 1.6 9.8 3.1 2.2 7.5 1.5 9.8-1.6l117.4-164.4c2.2-3.1 1.5-7.5-1.6-9.8-1.3-0.9-2.7-1.3-4.1-1.3z" fill="#1677B3" p-id="8129"></path>
</svg>